<!--
Copyright (c) 2026 HERE Europe B.V.
SPDX-License-Identifier: MIT
License-Filename: LICENSE
-->
<svg width="30" height="30" viewBox="0 0 30 30" fill="none" xmlns="http://www.w3.org/2000/svg">
<path d="M20 0C25.5228 0 30 4.47715 30 10V20C30 25.5228 25.5228 30 20 30H10C4.47715 30 1.61069e-07 25.5228 0 20V10C0 4.47715 4.47715 1.61064e-07 10 0H20ZM17.6045 22.9336L17.0469 25.1377C17.015 25.2341 17.01 25.3381 17.0322 25.4375C17.0545 25.5369 17.1032 25.6283 17.1729 25.7002C17.2424 25.772 17.3303 25.8215 17.4258 25.8438C17.5214 25.866 17.6217 25.8604 17.7139 25.8262L19.8271 25.2842L25.4443 19.3857L23.2207 17.0723L17.6045 22.9336ZM7.66309 8.49219C7.2568 8.69742 7.00009 9.11655 7 9.5752V20.7871C7.00007 21.6875 7.9385 22.2728 8.73633 21.8701L12.5996 19.9209L16.7773 21.8896L19.8887 18.7119L23 15.5332V7.55664C23 6.65619 22.0614 6.07021 21.2637 6.47266L17.4004 8.42285L12.5996 6L7.66309 8.49219ZM17.4004 10.2285V20.5371L12.5996 18.1143V7.80566L17.4004 10.2285ZM25.4199 15C25.3515 15.0001 25.2839 15.0145 25.2207 15.042C25.1575 15.0695 25.1 15.1094 25.0518 15.1602L23.9521 16.3027L26.1748 18.6162L27.2539 17.4893C27.3069 17.4402 27.3499 17.3805 27.3799 17.3135C27.4099 17.2463 27.4259 17.1728 27.4277 17.0986C27.4296 17.0245 27.4173 16.9506 27.3906 16.8818C27.364 16.813 27.3241 16.7504 27.2734 16.6982L25.7891 15.1602C25.7407 15.1095 25.6833 15.0694 25.6201 15.042C25.5567 15.0145 25.4885 15 25.4199 15Z" fill="url(#paint0_linear_178_36)"/>
<defs>
<linearGradient id="paint0_linear_178_36" x1="30" y1="15" x2="0" y2="15" gradientUnits="userSpaceOnUse">
<stop stop-color="#1BE0D7"/>
<stop offset="1" stop-color="#3675F5"/>
</linearGradient>
</defs>
</svg>
