<!--
Copyright (c) 2026 HERE Europe B.V.
SPDX-License-Identifier: MIT
License-Filename: LICENSE
-->
<svg width="30" height="30" viewBox="0 0 30 30" fill="none" xmlns="http://www.w3.org/2000/svg">
<path d="M20 0C25.5228 0 30 4.47715 30 10V20C30 25.5228 25.5228 30 20 30H10C4.47715 30 1.61069e-07 25.5228 0 20V10C0 4.47715 4.47715 1.61064e-07 10 0H20ZM7.5 20C7.10299 20.0026 6.72312 20.1617 6.44238 20.4424C6.16166 20.7232 6.00262 21.103 6 21.5C6 21.7966 6.08819 22.0864 6.25293 22.333C6.41771 22.5795 6.65177 22.7722 6.92578 22.8857C7.19986 22.9993 7.50199 23.0296 7.79297 22.9717C8.08385 22.9138 8.35082 22.7702 8.56055 22.5605C8.77021 22.3509 8.91277 22.0838 8.9707 21.793C9.02858 21.5021 8.99927 21.1999 8.88574 20.9258C8.7722 20.6518 8.57961 20.4177 8.33301 20.2529C8.08637 20.0882 7.7966 20 7.5 20ZM12 23H18V20H12V23ZM7.5 14C7.10218 14 6.72076 14.1582 6.43945 14.4395C6.15817 14.7208 6 15.1022 6 15.5C6 15.7966 6.08819 16.0864 6.25293 16.333C6.41771 16.5795 6.65177 16.7722 6.92578 16.8857C7.19986 16.9993 7.50199 17.0296 7.79297 16.9717C8.08385 16.9138 8.35082 16.7702 8.56055 16.5605C8.77021 16.3509 8.91277 16.0838 8.9707 15.793C9.02858 15.5021 8.99927 15.1999 8.88574 14.9258C8.7722 14.6518 8.57961 14.4177 8.33301 14.2529C8.08637 14.0882 7.7966 14 7.5 14ZM12 17H24V14H12V17ZM8.07422 8.11426C7.80013 8.00073 7.498 7.97142 7.20703 8.0293C6.91621 8.08723 6.64913 8.22977 6.43945 8.43945C6.22977 8.64913 6.08723 8.91621 6.0293 9.20703C5.97142 9.498 6.00073 9.80013 6.11426 10.0742C6.2278 10.3482 6.42037 10.5823 6.66699 10.7471C6.91362 10.9118 7.2034 11 7.5 11C7.89783 11 8.27925 10.8419 8.56055 10.5605C8.84186 10.2792 9 9.89783 9 9.5C9 9.2034 8.91183 8.91362 8.74707 8.66699C8.58229 8.42037 8.34822 8.2278 8.07422 8.11426ZM12 11H24V8H12V11Z" fill="url(#paint0_linear_178_34)"/>
<defs>
<linearGradient id="paint0_linear_178_34" x1="30" y1="15" x2="0" y2="15" gradientUnits="userSpaceOnUse">
<stop stop-color="#1BE0D7"/>
<stop offset="1" stop-color="#3675F5"/>
</linearGradient>
</defs>
</svg>
