<!--
Copyright (c) 2026 HERE Europe B.V.
SPDX-License-Identifier: MIT
License-Filename: LICENSE
-->
<svg width="30" height="30" viewBox="0 0 30 30" fill="none" xmlns="http://www.w3.org/2000/svg">
<path d="M20 0C25.5228 0 30 4.47715 30 10V20C30 25.5228 25.5228 30 20 30H10C4.47715 30 1.61069e-07 25.5228 0 20V10C0 4.47715 4.47715 1.61064e-07 10 0H20ZM23 14C23 16.1217 22.1574 18.1569 20.6572 19.6572C19.1569 21.1574 17.1217 22 15 22C13.5857 22.0015 12.1957 21.6332 10.9678 20.9316C9.73984 20.2299 8.71672 19.2192 8 18H13V16H5V24H7V20C8.25929 21.6791 10.0152 22.9191 12.0186 23.5449C14.0219 24.1707 16.1711 24.15 18.1621 23.4863C20.1532 22.8226 21.8851 21.5494 23.1123 19.8467C24.3394 18.144 25 16.0987 25 14H23ZM23 4V8C21.7407 6.32094 19.9847 5.08089 17.9814 4.45508C15.9782 3.82936 13.8288 3.8491 11.8379 4.5127C9.84677 5.1764 8.11489 6.45066 6.8877 8.15332C5.66059 9.85593 5 11.9013 5 14H7C6.99931 12.2384 7.58017 10.5257 8.65234 9.12793C9.72451 7.73015 11.2281 6.72542 12.9297 6.26953C14.6313 5.81363 16.4362 5.93191 18.0635 6.60645C19.6907 7.28099 21.0496 8.47409 21.9297 10H17V12H25V4H23Z" fill="url(#paint0_linear_178_37)"/>
<defs>
<linearGradient id="paint0_linear_178_37" x1="30" y1="15" x2="0" y2="15" gradientUnits="userSpaceOnUse">
<stop stop-color="#1BE0D7"/>
<stop offset="1" stop-color="#3675F5"/>
</linearGradient>
</defs>
</svg>
