<!--
Copyright (c) 2026 HERE Europe B.V.
SPDX-License-Identifier: MIT
License-Filename: LICENSE
-->
<svg width="30" height="30" viewBox="0 0 30 30" fill="none" xmlns="http://www.w3.org/2000/svg">
<rect width="30" height="30" rx="10" fill="url(#paint0_linear_169_111)"/>
<path fill-rule="evenodd" clip-rule="evenodd" d="M12.6 6L17.4 8.4229L21.2634 6.4728C22.0612 6.07005 23 6.65578 23 7.55635V15.5336L19.8889 18.7115L16.7778 21.8893L12.6 19.9204L8.73666 21.8705C7.93878 22.2733 7 21.6875 7 20.787L7 9.57544C7 9.11657 7.2568 8.6971 7.66334 8.49188L12.6 6ZM12.6 7.80593L12.6 18.1146L17.4 20.5375V10.2288L12.6 7.80593Z" fill="black"/>
<path d="M27.2732 16.6986L25.7895 15.1602C25.7411 15.1095 25.6836 15.0692 25.6202 15.0417C25.5569 15.0142 25.4889 15 25.4203 15C25.3517 15 25.2839 15.0142 25.2206 15.0417C25.1573 15.0692 25.0999 15.1095 25.0517 15.1602L23.9522 16.3032L26.1751 18.6161L27.2539 17.4894C27.307 17.4403 27.3499 17.3802 27.3799 17.313C27.4099 17.2458 27.4263 17.1728 27.4281 17.0987C27.4299 17.0246 27.4171 16.9508 27.3905 16.882C27.3638 16.8131 27.3239 16.7507 27.2732 16.6986ZM17.6043 22.9332L17.0471 25.1379C17.0152 25.2343 17.0101 25.3382 17.0324 25.4377C17.0546 25.5372 17.1034 25.6281 17.1731 25.7C17.2427 25.7719 17.3304 25.8218 17.426 25.8441C17.5216 25.8664 17.6213 25.86 17.7135 25.8258L19.8273 25.2841L25.4439 19.3853L23.221 17.0723L17.6043 22.9332Z" fill="black"/>
<defs>
<linearGradient id="paint0_linear_169_111" x1="30" y1="15" x2="0" y2="15" gradientUnits="userSpaceOnUse">
<stop stop-color="#65EBE2"/>
<stop offset="1" stop-color="#6B9CFF"/>
</linearGradient>
</defs>
</svg>
