<!--
Copyright (c) 2026 HERE Europe B.V.
SPDX-License-Identifier: MIT
License-Filename: LICENSE
-->
<svg width="229" height="229" viewBox="0 0 229 229" fill="none" xmlns="http://www.w3.org/2000/svg">
<rect width="228.406" height="228.406" rx="35.1393" fill="#092732"/>
<path fill-rule="evenodd" clip-rule="evenodd" d="M194.244 184.482L169.22 195.206C167.747 195.837 166.079 195.837 164.606 195.206L139.583 184.482L132.197 187.647C129.831 188.661 129.831 192.015 132.197 193.03L164.606 206.919C166.079 207.55 167.747 207.55 169.22 206.919L201.629 193.03C203.995 192.015 203.995 188.661 201.629 187.647L194.244 184.482Z" fill="#1EF3E4"/>
<path fill-rule="evenodd" clip-rule="evenodd" d="M194.244 161.055L169.22 171.78C167.747 172.411 166.079 172.411 164.606 171.78L139.583 161.055L132.197 164.22C129.831 165.235 129.831 168.589 132.197 169.603L164.606 183.493C166.079 184.124 167.747 184.124 169.22 183.493L201.629 169.603C203.995 168.589 203.995 165.235 201.629 164.22L194.244 161.055Z" fill="#1EF3E4"/>
<path d="M169.219 160.067L201.627 146.177C203.994 145.163 203.994 141.808 201.627 140.794L169.219 126.905C167.746 126.273 166.078 126.273 164.605 126.905L132.196 140.794C129.83 141.808 129.83 145.163 132.196 146.177L164.605 160.067C166.078 160.698 167.746 160.698 169.219 160.067Z" fill="#1EF3E4"/>
<path fill-rule="evenodd" clip-rule="evenodd" d="M47.0686 193.06L61.4939 207.908L75.9193 193.06C92.1368 176.499 92.2408 166.206 92.2408 157.488C92.2408 140.051 78.3924 125.916 61.4642 125.916C44.5361 125.916 30.7469 140.051 30.7469 157.488C30.7469 166.206 30.851 176.499 47.0686 193.06ZM66.4542 153.006C65.0971 152.099 63.5017 151.615 61.8695 151.615C59.6809 151.615 57.5819 152.485 56.0343 154.032C54.4868 155.58 53.6173 157.679 53.6173 159.868C53.6173 161.5 54.1013 163.095 55.0081 164.452C55.9148 165.809 57.2037 166.867 58.7116 167.492C60.2194 168.116 61.8787 168.28 63.4795 167.961C65.0802 167.643 66.5506 166.857 67.7047 165.703C68.8588 164.549 69.6447 163.078 69.9632 161.478C70.2816 159.877 70.1182 158.218 69.4936 156.71C68.869 155.202 67.8113 153.913 66.4542 153.006Z" fill="#1EF3E4"/>
<path d="M27.1743 79.0634L20.4979 95.4617C20.2733 96.4304 20.2991 97.4402 20.5727 98.3961C20.8463 99.352 21.3588 100.222 22.0619 100.926C22.765 101.629 23.6355 102.141 24.5914 102.415C25.5473 102.688 26.5571 102.714 27.5257 102.49L43.9241 95.8131L86.7941 52.9431L70.0443 36.3691L27.1743 79.0634ZM100.791 30.5125L92.475 22.1962C91.3777 21.1054 89.8933 20.4932 88.3461 20.4932C86.7989 20.4932 85.3145 21.1054 84.2172 22.1962L80.0591 26.3544L96.6331 42.9284L100.791 38.7703C101.882 37.673 102.494 36.1886 102.494 34.6414C102.494 33.0942 101.882 31.6098 100.791 30.5125Z" fill="#1EF3E4"/>
<path fill-rule="evenodd" clip-rule="evenodd" d="M125.916 61.4937C125.916 38.8523 144.27 20.4978 166.912 20.4978C189.553 20.4978 207.908 38.8523 207.908 61.4937C207.908 84.1351 189.553 102.49 166.912 102.49C144.27 102.49 125.916 84.1351 125.916 61.4937ZM134.056 58.5876C133.973 59.5452 133.93 60.5144 133.93 61.4937C133.93 79.709 148.697 94.4754 166.912 94.4754C185.127 94.4754 199.893 79.709 199.893 61.4937C199.893 59.1023 199.639 56.7704 199.156 54.5236L194.653 54.4042L197.736 59.7322L194.213 61.3334L191.571 59.7322L188.048 58.1309L186.287 59.7322L190.69 63.7353H194.213L195.094 65.3365L191.571 69.3397L188.929 74.944V78.1465L186.287 78.9471L185.406 82.1496L180.122 86.1527H177.48L174.838 79.7478L175.719 74.944L173.957 67.7384L171.315 66.9378L166.031 67.7384L162.508 65.3365L160.747 56.5297L166.031 52.5266L173.957 50.1247L179.241 52.5266L180.122 50.1247L177.48 46.1216L173.957 45.321L169.554 48.5234H166.031L164.27 44.5203L166.912 41.3178L169.554 42.1185L171.315 40.5172L170.435 37.3147L171.315 34.1122V30.1091L173.227 29.116C171.183 28.7196 169.072 28.512 166.912 28.512C162.348 28.512 158 29.4391 154.048 31.1151L150.729 39.6185L147.647 38.168L146.106 38.6439V41.7943L142.253 45.157L142.253 48.3217L140.711 49.047L136.658 48.339C136.271 49.2269 135.923 50.1352 135.614 51.0617L136.069 52.3464L138.381 55.2475L141.463 54.5222L146.857 56.698L149.169 61.0496L154.582 64.3237L153.041 68.6753L150.729 70.8511L148.417 78.8291L150.729 82.4554H148.417L145.335 78.8291L142.253 70.8511L139.17 68.6753L135.317 63.5984L136.088 59.972L135.085 59.3618L134.056 58.5876Z" fill="#1EF3E4"/>
</svg>
