<!--
Copyright (c) 2026 HERE Europe B.V.
SPDX-License-Identifier: MIT
License-Filename: LICENSE
-->
<svg width="30" height="30" viewBox="0 0 30 30" fill="none" xmlns="http://www.w3.org/2000/svg">
<rect width="30" height="30" rx="10" fill="url(#paint0_linear_169_102)"/>
<path d="M7.5 20C7.79667 20 8.08668 20.088 8.33336 20.2528C8.58003 20.4176 8.77229 20.6519 8.88582 20.926C8.99935 21.2001 9.02906 21.5017 8.97118 21.7926C8.9133 22.0836 8.77044 22.3509 8.56066 22.5607C8.35088 22.7704 8.08361 22.9133 7.79264 22.9712C7.50166 23.0291 7.20006 22.9994 6.92598 22.8858C6.65189 22.7723 6.41762 22.58 6.2528 22.3334C6.08797 22.0867 6 21.7967 6 21.5C6.00262 21.103 6.1615 20.723 6.44224 20.4422C6.72298 20.1615 7.10299 20.0026 7.5 20ZM6 15.5C6 15.7967 6.08797 16.0867 6.2528 16.3334C6.41762 16.58 6.65189 16.7723 6.92598 16.8858C7.20006 16.9994 7.50166 17.0291 7.79264 16.9712C8.08361 16.9133 8.35088 16.7704 8.56066 16.5607C8.77044 16.3509 8.9133 16.0836 8.97118 15.7926C9.02906 15.5017 8.99935 15.2001 8.88582 14.926C8.77229 14.6519 8.58003 14.4176 8.33336 14.2528C8.08668 14.088 7.79667 14 7.5 14C7.10218 14 6.72065 14.158 6.43934 14.4393C6.15804 14.7206 6 15.1022 6 15.5ZM9 9.5C9 9.20333 8.91203 8.91332 8.7472 8.66665C8.58238 8.41997 8.34811 8.22771 8.07403 8.11418C7.79994 8.00065 7.49834 7.97094 7.20737 8.02882C6.91639 8.0867 6.64912 8.22956 6.43934 8.43934C6.22956 8.64912 6.0867 8.91639 6.02882 9.20737C5.97094 9.49834 6.00065 9.79994 6.11418 10.074C6.22771 10.3481 6.41997 10.5824 6.66665 10.7472C6.91332 10.912 7.20333 11 7.5 11C7.89783 11 8.27936 10.842 8.56066 10.5607C8.84197 10.2794 9 9.89783 9 9.5ZM12 23H18V20H12V23ZM12 17H24V14H12V17ZM12 11H24V8H12V11Z" fill="black"/>
<defs>
<linearGradient id="paint0_linear_169_102" x1="30" y1="15" x2="0" y2="15" gradientUnits="userSpaceOnUse">
<stop stop-color="#65EBE2"/>
<stop offset="1" stop-color="#6B9CFF"/>
</linearGradient>
</defs>
</svg>
