<!--
Copyright (c) 2026 HERE Europe B.V.
SPDX-License-Identifier: MIT
License-Filename: LICENSE
-->
<svg width="30" height="30" viewBox="0 0 30 30" fill="none" xmlns="http://www.w3.org/2000/svg">
<rect width="30" height="30" rx="10" fill="white"/>
<path d="M6 11H15.9M15.9 11C15.9 12.6568 17.1088 14 18.6 14C20.0912 14 21.3 12.6568 21.3 11M15.9 11C15.9 9.34315 17.1088 8 18.6 8C20.0912 8 21.3 9.34315 21.3 11M21.3 11H24M24 19H14.1M14.1 19C14.1 20.6569 12.8912 22 11.4 22C9.90883 22 8.7 20.6569 8.7 19M14.1 19C14.1 17.3431 12.8912 16 11.4 16C9.90883 16 8.7 17.3431 8.7 19M8.7 19H6" stroke="black" stroke-width="1.5" stroke-linecap="round" stroke-linejoin="round"/>
</svg>
