<!--
Copyright (c) 2026 HERE Europe B.V.
SPDX-License-Identifier: MIT
License-Filename: LICENSE
-->
<svg width="30" height="30" viewBox="0 0 30 30" fill="none" xmlns="http://www.w3.org/2000/svg">
<rect width="30" height="30" rx="10" fill="url(#paint0_linear_173_239)"/>
<path d="M17 12V10H21.93C21.0499 8.47397 19.6906 7.28113 18.0632 6.60658C16.4359 5.93204 14.6313 5.81352 12.9297 6.26942C11.228 6.72531 9.72447 7.73013 8.6523 9.12793C7.58013 10.5257 6.99931 12.2384 7 14H5C5 11.9012 5.66037 9.85555 6.88758 8.1529C8.11478 6.45024 9.8466 5.17687 11.8377 4.51317C13.8288 3.84946 15.9783 3.82906 17.9817 4.45486C19.985 5.08067 21.7407 6.32094 23 8V4H25V12H17ZM5 16V24H7V20C8.25929 21.6791 10.015 22.9193 12.0183 23.5451C14.0217 24.1709 16.1712 24.1505 18.1623 23.4868C20.1534 22.8231 21.8852 21.5498 23.1124 19.8471C24.3396 18.1444 25 16.0988 25 14H23C23 16.1217 22.1571 18.1566 20.6569 19.6569C19.1566 21.1571 17.1217 22 15 22C13.5857 22.0015 12.1957 21.6331 10.9677 20.9315C9.73981 20.2298 8.71672 19.2192 8 18H13V16H5Z" fill="#0F1621"/>
<defs>
<linearGradient id="paint0_linear_173_239" x1="30" y1="15" x2="0" y2="15" gradientUnits="userSpaceOnUse">
<stop stop-color="#65EBE2"/>
<stop offset="1" stop-color="#6B9CFF"/>
</linearGradient>
</defs>
</svg>
